PathFileType	4	(X/Y/Z)	Captury_Subj1_walk03.trc
DataRate	CameraRate	NumFrames	NumMarkers	Units	OrigDataRate	OrigDataStartFrame	OrigNumFrames
100.0	100.0	7	47	mm	59.99879837036133	101	121
Frame#	Time		LeftUpLeg_		RightUpLeg_		LeftLeg_		RightLeg_		LeftFoot_		RightFoot_		LeftToeBase_		RightToeBase_		Knee_Lateral_r		Knee_Lateral_l		Ankle_Lateral_r		Ankle_Lateral_l		LeftArm_		LeftForeArm_		LeftHand_		LeftHandEE		RightArm_		RightForeArm_		RightHand_		RightHandEE		Spine_		Spine1_		Spine2_		Spine3_		Spine4_		Spine5_		Spine_x		Spine_y		Spine_z		RASI		LASI		RIPS		LIPS		RTHI		LTHI		RTIB		LTIB		RTOE		LTOE		RHEE		LHEE		RHipAngles		LHipAngles		RKneeAngles		LKneeAngles		RAnkleAngles		LAnkleAngles
			X1	Y1	Z1	X2	Y2	Z2	X3	Y3	Z3	X4	Y4	Z4	X5	Y5	Z5	X6	Y6	Z6	X7	Y7	Z7	X8	Y8	Z8	X9	Y9	Z9	X10	Y10	Z10	X11	Y11	Z11	X12	Y12	Z12	X13	Y13	Z13	X14	Y14	Z14	X15	Y15	Z15	X16	Y16	Z16	X17	Y17	Z17	X18	Y18	Z18	X19	Y19	Z19	X20	Y20	Z20	X21	Y21	Z21	X22	Y22	Z22	X23	Y23	Z23	X24	Y24	Z24	X25	Y25	Z25	X26	Y26	Z26	X27	Y27	Z27	X28	Y28	Z28	X29	Y29	Z29	X30	Y30	Z30	X31	Y31	Z31	X32	Y32	Z32	X33	Y33	Z33	X34	Y34	Z34	X35	Y35	Z35	X36	Y36	Z36	X37	Y37	Z37	X38	Y38	Z38	X39	Y39	Z39	X40	Y40	Z40	X41	Y41	Z41	X42	Y42	Z42	X43	Y43	Z43	X44	Y44	Z44	X45	Y45	Z45	X46	Y46	Z46	X47	Y47	Z47

101	1.00000	14.56315	816.72864	73.82331	28.07396	816.15088	-91.57644	-202.85851	482.80820	63.00709	123.86766	430.35788	-61.92204	-299.01233	127.73584	56.91497	257.43585	88.50653	-36.30446	-419.01724	87.20990	64.31337	151.19514	25.27763	-64.82269	131.55295	426.40356	-106.85069	-204.25084	479.45410	108.61516	282.70398	88.33606	-78.61014	-281.98251	123.97407	103.00306	24.59925	1299.78113	121.71008	100.25961	1040.34290	179.48599	122.75647	814.27490	233.26222	124.65942	729.77045	243.97580	-6.80456	1297.14343	-139.25314	-83.30351	1048.11475	-231.46709	-265.85114	903.26941	-245.64091	-322.91745	844.63007	-221.88649	40.09505	907.42700	-7.66059	24.25067	1003.80682	-9.71660	35.70580	1074.05725	-10.40177	68.64122	1158.54077	-12.00604	63.07108	1290.83142	-14.50087	4185915979477856304811803089567744.00000	0.00000	4185920931238013446332902686064640.00000	43.88468	907.26495	-54.05343	40.34948	953.97375	-7.80238	86.48747	907.18494	-3.87014	-60.03052	879.59375	-155.85110	-82.76833	880.56598	122.50595	70.80955	879.22412	-42.41552	64.74613	879.48340	31.81303	86.57430	630.84418	-141.10194	-86.65163	654.22150	133.49431	176.51587	269.91644	-88.56342	-279.21588	274.02322	93.04558	84.88244	3.18860	-80.03435	-489.39008	98.77696	69.84143	313.78598	33.57781	-34.35739	-255.79129	62.16552	51.55141	15.61513	-5.91956	3.53774	-31.96046	-2.16617	4.73717	-1.47471	1.08790	-0.04170	-12.12555	0.47533	0.01662	-7.46074	2.79501	11.96663	17.72845	5.53490	2.05818
102	1.01000	-0.79276	814.66346	74.64496	13.52647	814.51692	-90.68601	-216.71044	479.83297	62.14780	114.67923	430.06652	-61.74840	-323.42792	127.91841	55.42139	255.44663	91.16319	-36.29681	-444.68231	91.49702	62.96024	151.02764	25.15164	-65.10637	122.64476	426.36832	-106.64897	-218.32907	476.39873	107.74201	280.86243	91.72988	-78.50593	-306.60381	123.51363	101.52476	9.64359	1297.75657	122.28578	88.45989	1039.20925	179.77319	115.80536	813.61455	233.14037	119.77668	729.13617	243.33883	-21.42428	1294.69832	-138.69662	-100.77397	1046.33994	-230.27468	-285.67263	904.39708	-242.86207	-343.91066	847.24053	-218.40480	25.36734	905.52494	-6.45473	9.68074	1001.87982	-8.44217	21.21138	1072.06521	-9.12568	54.19635	1156.47336	-10.85417	48.65664	1288.70190	-13.86117	4185915979477856304811803089567744.00000	0.00000	4185920931238013446332902686064640.00000	29.38372	905.48385	-52.82829	25.74034	952.07085	-6.46324	71.73940	905.15367	-2.43837	-74.10026	878.36519	-155.20954	-98.19859	878.61169	123.03176	56.17988	877.34176	-41.13865	49.75366	877.40750	33.05903	74.91797	630.24019	-140.49042	-101.61863	651.62748	133.52057	170.86837	270.88016	-88.50883	-299.31775	273.45543	91.78310	85.35525	1.38431	-80.49386	-514.58616	105.49137	68.45843	313.21773	37.76415	-34.19568	-282.45784	60.93773	50.26376	16.56955	-5.82345	3.57515	-31.56531	-2.14783	4.69920	-1.89419	1.10854	-0.05439	-10.15165	0.57750	0.04765	-7.14693	2.72466	11.90753	17.49080	5.60009	2.33089
103	1.02000	-16.27761	812.75090	75.51938	-1.24290	813.01713	-89.74905	-230.64799	476.98579	61.48884	104.95730	429.85573	-61.62160	-346.30844	127.83224	53.95700	253.33256	94.19843	-36.32503	-468.61990	95.00976	61.55105	150.99677	25.07871	-65.28738	113.15600	426.40900	-106.50090	-232.47537	473.47946	107.06993	278.83178	95.55417	-78.46614	-329.68937	122.84019	100.07690	-5.42938	1295.82725	122.92820	76.40307	1038.14465	180.11404	108.48428	813.06530	233.08141	114.43734	728.62457	242.67299	-36.10066	1292.39456	-138.06691	-118.06370	1044.61836	-228.93694	-305.11701	905.38030	-240.08136	-364.47481	849.68530	-214.93044	10.46909	903.76465	-5.21876	-5.04862	1000.09304	-7.13055	6.56897	1070.20811	-7.80846	39.62080	1154.53091	-9.64765	34.14234	1286.69531	-13.13029	4185915979477856304811803089567744.00000	0.00000	4185920931238013446332902686064640.00000	14.68616	903.83934	-51.57477	10.96280	950.30935	-5.09866	56.82250	903.26195	-1.00287	-88.42410	877.26841	-154.47697	-113.72655	876.82025	123.65906	41.35856	875.59594	-39.84609	34.61125	875.47642	34.32352	62.82800	629.73623	-139.88823	-116.66925	649.18634	133.66909	164.84324	272.03698	-88.48605	-318.55938	272.68002	90.61584	86.07133	-0.58652	-80.77414	-538.09109	111.12880	66.98566	312.66986	42.55846	-34.09524	-307.31639	59.64053	48.99893	17.47608	-5.71639	3.59332	-31.15923	-2.13206	4.65069	-2.43816	1.12619	-0.06295	-8.43030	0.63697	0.07635	-6.71352	2.66470	11.86070	17.23870	5.64470	2.60147
104	1.03000	-32.02033	811.14357	76.49934	-16.45601	811.78567	-88.71902	-244.75677	474.39470	61.23055	94.16840	429.80605	-61.58847	-366.11878	127.20859	52.55101	250.96877	97.99081	-36.42502	-489.10254	96.97373	60.02977	151.23916	25.11190	-65.26305	102.50611	426.60153	-106.46010	-246.75780	470.83237	106.80000	276.42292	100.23940	-78.55520	-349.70345	121.74077	98.68991	-20.73698	1294.08840	123.70410	63.83204	1037.21814	180.56217	100.42325	812.73823	233.14823	108.18481	728.35834	241.94940	-50.89035	1290.37351	-137.29081	-134.99200	1043.00322	-227.30857	-323.80715	906.07460	-237.29691	-384.18086	851.79871	-211.47070	-4.77023	902.28790	-3.92255	-20.09683	998.58671	-5.74454	-8.36942	1068.62087	-6.40898	24.78388	1152.83835	-8.33184	19.42834	1284.93457	-12.21703	4185915979477856304811803089567744.00000	0.00000	4185920931238013446332902686064640.00000	-0.40460	902.46803	-50.26451	-4.15151	948.83066	-3.68317	41.56793	901.64930	0.44010	-103.25615	876.43521	-153.56240	-129.44989	875.35449	124.48935	26.15393	874.12318	-38.52215	19.16893	873.83499	35.62498	49.87073	629.43235	-139.30473	-131.88712	647.05096	134.06208	158.06286	273.57997	-88.52691	-336.08052	271.48936	89.63899	87.27392	-2.89043	-80.69594	-558.21372	114.61228	65.33336	312.16275	48.56872	-34.11733	-328.55895	58.20449	47.77973	18.28681	-5.58742	3.57301	-30.73130	-2.12142	4.58111	-3.23109	1.13789	-0.06324	-7.21404	0.61105	0.10036	-6.04090	2.62551	11.83842	16.95767	5.64812	2.86778
105	1.04000	-48.02464	809.66702	77.54109	-31.67482	810.88334	-87.59609	-259.10579	471.94867	60.83619	82.24462	429.78101	-61.73624	-382.98124	125.65662	51.11953	247.67288	102.21406	-36.66864	-506.35117	96.91775	58.29274	151.14195	25.20682	-65.46777	90.74391	426.84006	-106.59520	-261.32065	468.32705	106.39080	273.04948	105.46012	-78.77597	-366.79526	119.90311	97.30528	-36.28985	1292.67832	124.58118	50.59666	1036.50598	181.09590	91.47499	812.66815	233.23244	101.07755	728.41229	241.32782	-65.73306	1288.53376	-136.44343	-151.48002	1041.45161	-225.70129	-341.77994	906.50759	-234.43120	-402.93215	853.35615	-208.09327	-20.15804	901.03801	-2.40851	-35.29947	997.30654	-4.09057	-23.46309	1067.25981	-4.72662	9.79672	1151.36875	-6.76351	4.57715	1283.39019	-11.20094	4185915979477856304811803089567744.00000	0.00000	4185920931238013446332902686064640.00000	-15.57209	901.37919	-48.72770	-19.42026	947.57754	-1.99217	26.15670	900.26212	2.17090	-117.99821	875.99995	-152.60648	-145.51390	873.95289	125.30866	10.85689	872.92169	-36.96602	3.51938	872.37581	37.14468	36.41353	629.33696	-138.74626	-147.41379	645.04833	134.42198	150.27625	275.34171	-88.73816	-352.02781	269.66127	88.55938	88.40101	-5.38711	-80.89910	-575.25303	115.45025	63.33940	310.85791	55.41832	-34.23521	-346.23664	56.18925	46.63552	18.92813	-5.46863	3.50307	-30.30930	-2.03490	4.51148	-4.25164	1.15296	-0.05609	-6.52276	0.61733	0.11390	-5.13525	2.61174	11.84445	16.67153	5.64209	3.11770
106	1.05000	-64.15974	808.25586	78.61375	-46.89648	810.14557	-86.42672	-273.57492	469.57516	60.37379	69.75340	429.76828	-61.97446	-398.36975	123.64050	49.67532	243.91092	106.65274	-36.98409	-521.98279	95.85178	56.44785	150.87494	25.33260	-65.78702	78.42557	427.10159	-106.81825	-276.02371	465.89261	105.91197	269.19376	110.94860	-79.06259	-382.42593	117.69635	95.92181	-51.96534	1291.43262	125.50886	37.02911	1035.90100	181.67242	82.08313	812.72656	233.32535	93.54292	728.62634	240.75723	-80.60227	1286.78467	-135.56041	-167.74789	1039.93176	-224.10457	-359.39404	906.80994	-231.52487	-421.20605	854.63562	-204.75699	-35.62009	899.90155	-0.78556	-50.57932	996.13947	-2.30262	-38.63441	1066.01184	-2.90281	-5.26556	1150.01062	-5.06892	-10.34263	1281.95398	-10.13343	4185915979477856304811803089567744.00000	0.00000	4185920931238013446332902686064640.00000	-30.77794	900.43158	-47.07763	-34.76622	946.43719	-0.16341	10.66713	898.98767	4.04562	-132.69528	875.76367	-151.62990	-161.74823	872.58337	126.12249	-4.48636	871.85583	-35.29380	-12.23380	871.00775	38.77350	22.70638	629.34583	-138.20032	-163.09485	643.11206	134.76534	141.98651	277.21283	-89.03459	-367.18817	267.51447	87.42838	89.49035	-7.98017	-81.24293	-590.75067	114.96546	61.17460	309.15421	62.68760	-34.40098	-362.13190	53.88439	45.52881	19.48475	-5.35492	3.40830	-29.89027	-1.91044	4.44184	-5.38600	1.16971	-0.04522	-6.09397	0.63971	0.12219	-4.11308	2.61067	11.86463	16.38284	5.63134	3.35942
107	1.06000	-80.61482	807.51970	79.86261	-63.03572	809.73292	-85.14009	-288.09758	467.75132	59.98004	55.29219	429.77224	-62.41549	-409.93802	120.80490	48.35952	239.56608	112.44008	-37.67893	-533.44197	92.44333	54.70929	151.13841	26.09008	-65.80656	63.88522	427.31857	-107.28629	-290.73754	463.96390	105.49858	264.38898	117.87659	-79.88705	-394.17358	114.87806	94.66943	-67.85482	1290.53884	126.57034	22.63489	1035.44866	182.33457	71.30287	812.95537	233.55699	84.63981	729.11124	240.57030	-95.73996	1285.73159	-134.61113	-183.29425	1038.73953	-222.35733	-375.78444	906.78866	-228.59414	-437.98335	855.15450	-201.68126	-51.69189	899.26841	0.72228	-66.41897	995.44854	-0.69586	-54.30835	1065.19600	-1.28322	-20.73967	1149.01519	-3.51904	-25.50448	1280.86055	-8.93455	4185915979477856304811803089567744.00000	0.00000	4185920931238013446332902686064640.00000	-46.76115	899.88918	-45.55919	-50.72048	945.80002	1.45007	-5.41649	898.22533	5.63822	-148.54345	875.71515	-150.35705	-178.12794	871.99044	127.33176	-20.56491	871.22020	-33.79001	-28.45410	870.22695	40.26034	7.23665	629.44038	-137.76202	-178.90954	641.73177	135.22666	132.18544	279.58809	-89.56250	-380.14103	264.89243	86.39717	91.66033	-10.53598	-80.89806	-602.30364	111.29524	59.09581	307.06724	72.17923	-35.14876	-373.35051	51.21229	44.57456	19.85001	-5.15158	3.23946	-29.42397	-2.01860	4.33036	-6.97347	1.17531	-0.02519	-6.26522	0.68702	0.11075	-2.75956	2.66631	11.90318	16.16398	5.61835	3.60167
